<svg xmlns="http://www.w3.org/2000/svg" width="140.104" height="29.996" viewBox="0 0 140.104 29.996">
  <g id="グループ_9961" data-name="グループ 9961" transform="translate(-6.585 -5)">
    <g id="グループ_4972" data-name="グループ 4972" transform="translate(39.344 9.07)">
      <path id="パス_1121" data-name="パス 1121" d="M50.947,11.271v4.352h3.825v.6H50.947v5.436h-.678V10.669h4.909v.6Z" transform="translate(-50.269 -10.488)" fill="#070304"/>
      <path id="パス_1122" data-name="パス 1122" d="M68.632,21.661l-4.713-5.27v5.27h-.678V10.669h2.7c1.867,0,3.479,1.129,3.479,3.042,0,2.018-1.672,3.147-3.645,3.147h-.526l4.261,4.8Zm-2.7-10.39H63.919v4.984H65.77c1.552,0,2.937-.767,2.937-2.544A2.471,2.471,0,0,0,65.936,11.271Z" transform="translate(-53.513 -10.488)" fill="#070304"/>
      <path id="パス_1123" data-name="パス 1123" d="M82.471,21.782A5.491,5.491,0,0,1,77.035,16.1a5.426,5.426,0,1,1,10.842-.015A5.48,5.48,0,0,1,82.471,21.782Zm0-10.722A4.814,4.814,0,0,0,77.743,16.1a4.724,4.724,0,1,0,9.426,0A4.772,4.772,0,0,0,82.471,11.06Z" transform="translate(-56.963 -10.428)" fill="#070304"/>
      <path id="パス_1124" data-name="パス 1124" d="M106.661,21.661V11.633L102.9,17.475h-.451L98.7,11.663v10h-.678V10.669h.814l3.854,5.992,3.825-5.992h.829V21.661Z" transform="translate(-62.211 -10.488)" fill="#070304"/>
      <path id="パス_1125" data-name="パス 1125" d="M125.315,21.752h-.692v-.6h.783a2.359,2.359,0,0,0,2.108-2.5V10.669h.677v7.845A2.991,2.991,0,0,1,125.315,21.752Z" transform="translate(-68.865 -10.488)" fill="#070304"/>
      <path id="パス_1126" data-name="パス 1126" d="M142.8,21.6,141.3,17.385h-4.066L135.726,21.6H135l4.081-11.173h.376L143.526,21.6Zm-3.539-9.923-1.822,5.1h3.645Z" transform="translate(-71.461 -10.428)" fill="#070304"/>
      <path id="パス_1127" data-name="パス 1127" d="M155,16.873h-1.731v4.788h-.679V10.669H155c2.439,0,3.66,1.249,3.66,2.982C158.661,15.548,157.381,16.873,155,16.873Zm-.12-5.6h-1.611v5h1.882c2.018,0,2.8-1.159,2.8-2.56C157.954,12.189,157.034,11.271,154.881,11.271Z" transform="translate(-75.86 -10.488)" fill="#070304"/>
      <path id="パス_1128" data-name="パス 1128" d="M172.2,21.6l-1.507-4.216h-4.065L165.122,21.6H164.4l4.081-11.173h.376L172.922,21.6Zm-3.539-9.923-1.822,5.1h3.644Z" transform="translate(-78.813 -10.428)" fill="#070304"/>
      <path id="パス_1129" data-name="パス 1129" d="M189.775,21.661l-7.138-10.119s.03.376.03.814v9.306h-.677V10.669h.843l7.078,10.074s-.03-.376-.03-.813V10.669h.678V21.661Z" transform="translate(-83.212 -10.488)" fill="#070304"/>
    </g>
    <g id="グループ_4973" data-name="グループ 4973" transform="translate(39.157 25.174)">
      <path id="パス_1130" data-name="パス 1130" d="M53.114,36.36,52.551,34.8H51.028l-.564,1.559H50.02l1.649-4.418h.252l1.655,4.418Zm-1.325-3.681-.618,1.738h1.236Z" transform="translate(-50.02 -31.912)" fill="#070304"/>
      <path id="パス_1131" data-name="パス 1131" d="M58.487,37.018v-.354a.87.87,0,0,1-.767.426.825.825,0,0,1-.9-.893V34.572h.39v1.559a.558.558,0,0,0,.575.605.738.738,0,0,0,.7-.749V34.572h.39v2.446Z" transform="translate(-51.721 -32.57)" fill="#070304"/>
      <path id="パス_1132" data-name="パス 1132" d="M62.885,37.066a1.222,1.222,0,0,1-1.241-1.3,1.238,1.238,0,0,1,1.211-1.289,1.256,1.256,0,0,1,1.049.516l-.293.228a.888.888,0,0,0-.732-.378.859.859,0,0,0-.833.905.869.869,0,0,0,.827.959.954.954,0,0,0,.8-.449l.282.21A1.318,1.318,0,0,1,62.885,37.066Z" transform="translate(-52.927 -32.546)" fill="#070304"/>
      <path id="パス_1133" data-name="パス 1133" d="M67.413,36.655c-.437,0-.713-.175-.713-.66V34.55h-.36v-.36h.36V33.045h.39V34.19h.462v.36H67.09v1.439c0,.192.1.3.336.3h.131v.36Z" transform="translate(-54.102 -32.188)" fill="#070304"/>
      <path id="パス_1134" data-name="パス 1134" d="M70.06,33.548v-.575h.39v.575Zm0,3.07V34.172h.39v2.446Z" transform="translate(-55.032 -32.17)" fill="#070304"/>
      <path id="パス_1135" data-name="パス 1135" d="M73.931,37.066a1.3,1.3,0,1,1,1.277-1.313A1.268,1.268,0,0,1,73.931,37.066Zm-.006-2.224a.934.934,0,1,0,.881.923A.863.863,0,0,0,73.925,34.842Z" transform="translate(-55.682 -32.546)" fill="#070304"/>
      <path id="パス_1136" data-name="パス 1136" d="M79.807,36.994V35.435a.545.545,0,0,0-.576-.6.72.72,0,0,0-.7.743v1.415h-.39V34.548h.39V34.9a.864.864,0,0,1,.761-.426.843.843,0,0,1,.905.893v1.625Z" transform="translate(-57.053 -32.546)" fill="#070304"/>
      <path id="パス_1137" data-name="パス 1137" d="M88.608,36.35l-.414-.468a2.041,2.041,0,0,1-1.331.54,1.167,1.167,0,0,1-1.211-1.139,1.728,1.728,0,0,1,.869-1.343l-.264-.3a1.242,1.242,0,0,1-.359-.8.976.976,0,0,1,.989-.941.926.926,0,0,1,.983.935,1.592,1.592,0,0,1-.8,1.158l1.187,1.336a4.014,4.014,0,0,0,.39-.456l.282.264a5.378,5.378,0,0,1-.432.48l.647.731Zm-1.847-2.128a1.364,1.364,0,0,0-.69,1.025.787.787,0,0,0,.792.8,1.673,1.673,0,0,0,1.1-.45Zm.132-1.961a.569.569,0,0,0-.582.57.884.884,0,0,0,.288.63l.234.263c.276-.192.636-.5.636-.869A.55.55,0,0,0,86.893,32.261Z" transform="translate(-58.931 -31.902)" fill="#070304"/>
      <path id="パス_1138" data-name="パス 1138" d="M96.071,36.422a1.819,1.819,0,0,1-1.211-.45l.252-.311a1.464,1.464,0,0,0,.947.36.771.771,0,0,0,.857-.743c0-.51-.431-.745-.881-.978-.564-.288-1.139-.57-1.139-1.313A1.085,1.085,0,0,1,96.065,31.9a1.594,1.594,0,0,1,1.145.425l-.258.318a1.142,1.142,0,0,0-.887-.341.672.672,0,0,0-.731.664c0,.523.4.7.953.984.533.276,1.061.558,1.061,1.3A1.2,1.2,0,0,1,96.071,36.422Z" transform="translate(-61.234 -31.902)" fill="#070304"/>
      <path id="パス_1139" data-name="パス 1139" d="M101.96,36.374V34.815a.549.549,0,0,0-.569-.6.716.716,0,0,0-.7.743v1.415H100.3V32h.389v2.285a.87.87,0,0,1,.756-.426.844.844,0,0,1,.905.893v1.625Z" transform="translate(-62.595 -31.926)" fill="#070304"/>
      <path id="パス_1140" data-name="パス 1140" d="M106.314,37.066a1.3,1.3,0,1,1,1.277-1.313A1.268,1.268,0,0,1,106.314,37.066Zm-.006-2.224a.934.934,0,1,0,.882.923A.864.864,0,0,0,106.308,34.842Z" transform="translate(-63.781 -32.546)" fill="#070304"/>
      <path id="パス_1141" data-name="パス 1141" d="M111.728,37.066a.943.943,0,0,1-.816-.467v1.469h-.389v-3.52h.389v.4a.983.983,0,0,1,.846-.474,1.307,1.307,0,0,1-.03,2.59Zm-.03-2.224a.943.943,0,0,0-.012,1.864.828.828,0,0,0,.786-.935C112.472,35.273,112.2,34.842,111.7,34.842Z" transform="translate(-65.152 -32.546)" fill="#070304"/>
      <path id="パス_1142" data-name="パス 1142" d="M116.944,37.066a.943.943,0,0,1-.816-.467v1.469h-.389v-3.52h.389v.4a.983.983,0,0,1,.846-.474,1.307,1.307,0,0,1-.03,2.59Zm-.03-2.224a.943.943,0,0,0-.012,1.864.828.828,0,0,0,.785-.935C117.687,35.273,117.418,34.842,116.914,34.842Z" transform="translate(-66.456 -32.546)" fill="#070304"/>
      <path id="パス_1143" data-name="パス 1143" d="M120.956,33.548v-.575h.389v.575Zm0,3.07V34.172h.389v2.446Z" transform="translate(-67.761 -32.17)" fill="#070304"/>
      <path id="パス_1144" data-name="パス 1144" d="M125.453,36.994V35.435a.544.544,0,0,0-.575-.6.72.72,0,0,0-.7.743v1.415h-.389V34.548h.389V34.9a.866.866,0,0,1,.762-.426.844.844,0,0,1,.905.893v1.625Z" transform="translate(-68.469 -32.546)" fill="#070304"/>
      <path id="パス_1145" data-name="パス 1145" d="M129.7,38.134a1.454,1.454,0,0,1-1.013-.367l.222-.275a1.172,1.172,0,0,0,.786.288.733.733,0,0,0,.809-.732V36.6a.94.94,0,0,1-.828.467,1.148,1.148,0,0,1-1.133-1.276,1.214,1.214,0,0,1,1.139-1.314.95.95,0,0,1,.822.474v-.4h.389v2.428A1.092,1.092,0,0,1,129.7,38.134Zm.025-3.292a.831.831,0,0,0-.78.923c0,.546.281.941.791.941a.945.945,0,0,0-.011-1.864Z" transform="translate(-69.659 -32.546)" fill="#070304"/>
      <path id="パス_1146" data-name="パス 1146" d="M138.027,34.552h-.754v1.822h-.414V32h1.115a1.27,1.27,0,0,1,1.445,1.26A1.293,1.293,0,0,1,138.027,34.552Zm-.119-2.171h-.635v1.787h.713a.883.883,0,0,0,1-.911C138.987,32.7,138.633,32.381,137.908,32.381Z" transform="translate(-71.738 -31.926)" fill="#070304"/>
      <path id="パス_1147" data-name="パス 1147" d="M143.488,34.98a.529.529,0,0,0-.354-.138c-.317,0-.581.36-.581.779v1.373h-.389V34.548h.389v.336a.75.75,0,0,1,.647-.408.668.668,0,0,1,.486.186Z" transform="translate(-73.065 -32.546)" fill="#070304"/>
      <path id="パス_1148" data-name="パス 1148" d="M146.986,37.066a1.3,1.3,0,1,1,1.277-1.313A1.268,1.268,0,0,1,146.986,37.066Zm-.006-2.224a.934.934,0,1,0,.882.923A.864.864,0,0,0,146.98,34.842Z" transform="translate(-73.953 -32.546)" fill="#070304"/>
      <path id="パス_1149" data-name="パス 1149" d="M152.564,37.018l-.7-1.012-.7,1.012H150.7l.936-1.337-.78-1.109h.468l.545.785.54-.785h.461l-.767,1.1.942,1.343Z" transform="translate(-75.199 -32.57)" fill="#070304"/>
      <path id="パス_1150" data-name="パス 1150" d="M156.506,37.57a.712.712,0,0,1-.677.558.957.957,0,0,1-.378-.066V37.7a.549.549,0,0,0,.275.072c.295,0,.378-.209.468-.449l.115-.288-.93-2.458h.42l.737,1.936.708-1.936h.408Z" transform="translate(-76.37 -32.57)" fill="#070304"/>
      <path id="パス_1151" data-name="パス 1151" d="M164.15,36.422a1.819,1.819,0,0,1-1.211-.45l.252-.311a1.464,1.464,0,0,0,.947.36.771.771,0,0,0,.857-.743c0-.51-.431-.745-.882-.978-.563-.288-1.138-.57-1.138-1.313a1.085,1.085,0,0,1,1.168-1.085,1.6,1.6,0,0,1,1.146.425l-.258.318a1.144,1.144,0,0,0-.888-.341.672.672,0,0,0-.73.664c0,.523.4.7.952.984.534.276,1.062.558,1.062,1.3A1.2,1.2,0,0,1,164.15,36.422Z" transform="translate(-78.261 -31.902)" fill="#070304"/>
      <path id="パス_1152" data-name="パス 1152" d="M168.542,35.783a.862.862,0,0,0,.869.923,1.149,1.149,0,0,0,.834-.336l.252.246a1.472,1.472,0,0,1-1.1.45,1.225,1.225,0,0,1-1.253-1.325,1.212,1.212,0,0,1,1.223-1.265,1.2,1.2,0,0,1,1.175,1.307Zm.809-.953a.756.756,0,0,0-.791.642h1.546A.75.75,0,0,0,169.351,34.83Z" transform="translate(-79.563 -32.546)" fill="#070304"/>
      <path id="パス_1153" data-name="パス 1153" d="M174.727,34.98a.529.529,0,0,0-.354-.138c-.317,0-.582.36-.582.779v1.373H173.4V34.548h.389v.336a.753.753,0,0,1,.649-.408.668.668,0,0,1,.485.186Z" transform="translate(-80.877 -32.546)" fill="#070304"/>
      <path id="パス_1154" data-name="パス 1154" d="M178.226,37.126l-1.151-2.554h.425l.726,1.667.737-1.667h.408Z" transform="translate(-81.796 -32.57)" fill="#070304"/>
      <path id="パス_1155" data-name="パス 1155" d="M182.058,33.548v-.575h.39v.575Zm0,3.07V34.172h.39v2.446Z" transform="translate(-83.042 -32.17)" fill="#070304"/>
      <path id="パス_1156" data-name="パス 1156" d="M185.9,37.066a1.222,1.222,0,0,1-1.24-1.3,1.237,1.237,0,0,1,1.211-1.289,1.254,1.254,0,0,1,1.048.516l-.293.228a.888.888,0,0,0-.732-.378.859.859,0,0,0-.833.905.869.869,0,0,0,.827.959.957.957,0,0,0,.8-.449l.282.21A1.319,1.319,0,0,1,185.9,37.066Z" transform="translate(-83.693 -32.546)" fill="#070304"/>
      <path id="パス_1157" data-name="パス 1157" d="M189.894,35.783a.861.861,0,0,0,.869.923,1.147,1.147,0,0,0,.833-.336l.252.246a1.469,1.469,0,0,1-1.1.45,1.224,1.224,0,0,1-1.252-1.325,1.211,1.211,0,0,1,1.222-1.265,1.2,1.2,0,0,1,1.176,1.307Zm.809-.953a.756.756,0,0,0-.791.642h1.547A.752.752,0,0,0,190.7,34.83Z" transform="translate(-84.903 -32.546)" fill="#070304"/>
    </g>
    <path id="パス_1158" data-name="パス 1158" d="M19.642,5H6.585V30.359H8.411V18.469h8.813V16.847H8.411V6.622H19.642V26.643c0,3.609-2.555,6.731-5.678,6.731H11.858V35h1.866c3.771,0,7.745-3.041,7.745-8.718V5Z" fill="#070304"/>
  </g>
</svg>
