<svg xmlns="http://www.w3.org/2000/svg" width="56.61" height="56.6" viewBox="0 0 56.61 56.6">
  <g id="グループ_12932" data-name="グループ 12932" transform="translate(-156.006 -217.893)">
    <path id="パス_3101" data-name="パス 3101" d="M211.8,273.672l-12.359-14.748a.5.5,0,0,0-.384-.178.492.492,0,0,0-.253.069l-14.5,8.532-14.487-8.534a.5.5,0,0,0-.637.11l-12.347,14.749a.5.5,0,0,0,.383.821h5.217a.5.5,0,0,0,.383-.179l7.749-9.257L184.05,273a.5.5,0,0,0,.254.069.5.5,0,0,0,.253-.069l13.495-7.943,7.758,9.257a.5.5,0,0,0,.384.179h5.219a.5.5,0,0,0,.383-.821Z" fill="#9e9e9e"/>
    <path id="パス_3102" data-name="パス 3102" d="M167.848,228.589a.509.509,0,0,0-.171-.03.5.5,0,0,0-.383.179l-11.171,13.338a.5.5,0,0,0-.117.321v25.875a.5.5,0,0,0,.33.469.482.482,0,0,0,.17.031.5.5,0,0,0,.384-.18l11.17-13.337a.5.5,0,0,0,.117-.321V229.059A.5.5,0,0,0,167.848,228.589Z" fill="#00aff5" fill-rule="evenodd"/>
    <path id="パス_3103" data-name="パス 3103" d="M212.5,242.076l-11.171-13.338a.5.5,0,0,0-.383-.179.509.509,0,0,0-.171.03.5.5,0,0,0-.329.47v25.875a.5.5,0,0,0,.117.321l11.17,13.337a.5.5,0,0,0,.383.18.487.487,0,0,0,.171-.031.5.5,0,0,0,.329-.469V242.4A.5.5,0,0,0,212.5,242.076Z" fill="#9dd700" fill-rule="evenodd"/>
    <path id="パス_3104" data-name="パス 3104" d="M172.948,242.188a16.145,16.145,0,0,1-3.065-4.285V254.83a.5.5,0,0,0,.246.431l12.566,7.41a.491.491,0,0,0,.254.07.5.5,0,0,0,.5-.5v-12.4a8.807,8.807,0,0,1-5.41-2.559Z" fill="#9dd700"/>
    <path id="パス_3105" data-name="パス 3105" d="M195.709,242.169l-5.109,5.109a8.823,8.823,0,0,1-5.437,2.561v12.4a.5.5,0,0,0,.5.5.491.491,0,0,0,.254-.07l12.566-7.41a.5.5,0,0,0,.246-.431V237.95a16.15,16.15,0,0,1-2.869,4.057C195.812,242.062,195.761,242.116,195.709,242.169Z" fill="#00aff5"/>
    <path id="パス_3106" data-name="パス 3106" d="M197.216,230.794a12.9,12.9,0,1,0-22.008,9.128h0l5.093,5.092a5.682,5.682,0,0,0,8.036,0l5.109-5.109,0,0A12.863,12.863,0,0,0,197.216,230.794Zm-12.9,7.9a7.9,7.9,0,1,1,7.9-7.9A7.9,7.9,0,0,1,184.315,238.7Z" fill="#fa2649"/>
  </g>
</svg>
